<svg width="1440" height="307" viewBox="0 0 1440 307" fill="none" xmlns="http://www.w3.org/2000/svg">
<path fill-rule="evenodd" clip-rule="evenodd" d="M1179.5 153C1179.5 153 272 144.5 0 0V153H1179.5ZM1177.5 153.127C1177.5 153.127 272 161.627 0 306.127V153.127H1177.5Z" fill="#AA2EDB"/>
<path fill-rule="evenodd" clip-rule="evenodd" d="M1088.04 153C833.917 151.774 147.606 140.024 0 50V153H1088.04ZM1139.63 153.127C1167.36 153.125 1183 153 1183 153H1088.04C1107.47 153.094 1124.37 153.126 1138.32 153.127H0V256.127C147.606 166.103 1002.96 154.353 1320.97 153.127H1440C1440 153.127 1395.07 152.841 1320.97 153.127H1139.63Z" fill="#C178DE"/>
<path fill-rule="evenodd" clip-rule="evenodd" d="M1171.42 153C1080.71 152.957 81.1359 151.091 0 90.0001V153H1171.42ZM1173.91 153.127C1082.99 153.17 81.1359 155.036 0 216.127V153.127H1173.91Z" fill="#D395EB"/>
<path d="M1226.89 146.692C1232.18 149.236 1232.18 156.764 1226.89 159.308L1187.03 178.483C1182.39 180.719 1177 177.332 1177 172.175L1177 133.825C1177 128.668 1182.39 125.281 1187.03 127.517L1226.89 146.692Z" fill="url(#paint0_linear_67_2)" stroke="#CF85EC" stroke-width="6"/>
<defs>
<linearGradient id="paint0_linear_67_2" x1="1214.65" y1="138.791" x2="1163.62" y2="180.215" gradientUnits="userSpaceOnUse">
<stop stop-color="#A118D7"/>
<stop offset="1" stop-color="#CF85EC"/>
</linearGradient>
</defs>
</svg>
