<svg width="27" height="27" viewBox="0 0 27 27" fill="none" xmlns="http://www.w3.org/2000/svg">
<path d="M13.5 26C20.4035 26 26 20.4035 26 13.5C26 6.59644 20.4035 1 13.5 1C6.59644 1 1 6.59644 1 13.5C1 20.4035 6.59644 26 13.5 26Z" stroke="white" stroke-linecap="round" stroke-linejoin="round"/>
<path d="M16.4166 22.25V19.9212C16.4479 19.5344 16.3943 19.1454 16.2591 18.7802C16.1241 18.4151 15.9108 18.0821 15.6334 17.8035C18.25 17.5195 21 16.5539 21 12.1236C20.9998 10.9907 20.5523 9.90126 19.75 9.08076C20.1299 8.08964 20.103 6.9941 19.675 6.02174C19.675 6.02174 18.6916 5.73775 16.4166 7.22264C14.5066 6.7186 12.4934 6.7186 10.5833 7.22264C8.30834 5.73775 7.325 6.02174 7.325 6.02174C6.89698 6.9941 6.87013 8.08964 7.25 9.08076C6.44178 9.90735 5.99378 11.0066 6 12.1479C6 16.5458 8.75 17.5114 11.3666 17.8278C11.0925 18.1036 10.8811 18.4326 10.7461 18.7934C10.6111 19.154 10.5557 19.5382 10.5833 19.9212V22.25" stroke="white" stroke-linecap="round" stroke-linejoin="round"/>
<path d="M10.5833 20.6271C8.08333 21.4167 5.99999 20.6271 4.74999 18.1929" stroke="white" stroke-linecap="round" stroke-linejoin="round"/>
</svg>
