<svg width="1343" height="833" viewBox="0 0 1343 833" fill="none" xmlns="http://www.w3.org/2000/svg">
<path d="M232.978 467C234.978 438.5 239.978 440 270.478 403C270.478 400.333 272.878 393 282.478 385C294.478 375 311.478 364.5 317.478 359.5C323.478 354.5 334.478 347.5 344.478 309.5C352.478 279.1 360.811 259.833 363.978 254C360.478 256.667 351.678 264.7 344.478 275.5C335.478 289 330.478 290.5 317.478 299.5C304.478 308.5 300.478 316.5 291.478 334.5C282.478 352.5 278.478 356.5 262.478 373.5C246.478 390.5 232.978 392 219.978 408C206.978 424 210.978 443 200.978 467C190.978 491 184.978 491.499 175.978 511.499C166.978 531.499 165.978 546.499 153.978 559.499C141.978 572.499 115.478 593.499 125.478 588.499C135.478 583.499 175.978 567.499 175.978 553.499C175.978 539.499 195.978 522.499 210.978 511.499C225.978 500.499 230.978 495.5 232.978 467Z" fill="url(#paint0_linear_59_2)"/>
<path d="M123.478 408.501C138.978 383.501 139.478 397.001 156.478 383.501C167.644 377.834 187.178 367.901 175.978 373.501C161.978 380.501 123.478 373.501 105.478 383.501C87.4775 393.501 82.9776 408.501 77.4775 415.001C71.9775 421.501 30.4775 447.501 23.4775 447.501C16.4775 447.501 -3.02246 492.501 -14.0225 492.501C-25.0225 492.501 -22.0224 509.501 -34.5224 527.501C-47.0224 545.501 -61.0224 596.501 -50.0224 585.501C-43.0224 555.001 -36.0224 576.001 -22.0224 555.001C-8.02244 534.001 -14.0225 541 -1.52245 527.5C10.9775 514 32.9776 506.501 42.9776 492.501C52.9776 478.501 68.9776 477.001 82.9776 459.001C96.9776 441.001 107.978 433.501 123.478 408.501Z" fill="url(#paint1_linear_59_2)"/>
<path d="M111.71 614C113.71 585.5 118.71 587 149.21 550C149.21 547.333 151.61 540 161.21 532C173.21 522 190.21 511.5 196.21 506.5C202.21 501.5 213.21 494.5 223.21 456.5C231.21 426.1 239.543 406.833 242.71 401C239.21 403.667 230.41 411.7 223.21 422.5C214.21 436 209.21 437.5 196.21 446.5C183.21 455.5 179.21 463.5 170.21 481.5C161.21 499.5 157.21 503.5 141.21 520.5C125.21 537.5 111.71 539 98.7096 555C85.7096 571 89.7095 590 79.7095 614C69.7095 638 63.7095 638.499 54.7095 658.499C45.7094 678.499 36.5001 660 24.5001 673C12.5001 686 -17.9999 711.499 -7.99992 706.499C2.00008 701.499 54.7095 714.499 54.7095 700.499C54.7095 686.499 74.7095 669.499 89.7095 658.499C104.709 647.499 109.71 642.5 111.71 614Z" fill="url(#paint2_linear_59_2)"/>
<path d="M826 396C824 367.5 819 369 788.5 332C788.5 329.333 786.1 322 776.5 314C764.5 304 747.5 293.5 741.5 288.5C735.5 283.5 724.5 276.5 714.5 238.5C706.5 208.1 698.167 188.833 695 183C698.5 185.667 707.3 193.7 714.5 204.5C723.5 218 728.5 219.5 741.5 228.5C754.5 237.5 758.5 245.5 767.5 263.5C776.5 281.5 780.5 285.5 796.5 302.5C812.5 319.5 826 321 839 337C852 353 848 372 858 396C868 420 874 420.499 883 440.499C892 460.499 893 475.499 905 488.499C917 501.499 943.5 522.499 933.5 517.499C923.5 512.499 883 496.499 883 482.499C883 468.499 863 451.499 848 440.499C833 429.499 828 424.5 826 396Z" fill="url(#paint3_linear_59_2)"/>
<path d="M971 401C971.402 401.349 971.801 401.701 972.197 402.054C975.905 405.112 984.352 410.603 996.5 414.5C1013.65 420 1011 429 1029 455C1047 481 1049 482.5 1067 504C1085 525.5 1104.5 534 1123.5 547.5C1142.5 561 1155 563.5 1181 572C1207 580.5 1201.5 596.5 1211.5 625C1221.5 653.5 1237.5 681.5 1259 703C1280.5 724.5 1285 714.5 1285 732C1285 749.5 1306.5 732 1314 743.5C1321.5 755 1331 763.5 1331 771C1331 778.5 1338.5 794 1341.5 807C1344.5 820 1337 841.5 1331 828.5C1325 815.5 1324 805.5 1314 784C1304 762.5 1302.5 765 1285 753.5C1267.5 742 1268 742 1246 732C1224 722 1229 722 1211.5 714.5C1194 707 1190 696 1181 681.5C1172 667 1166.5 661.5 1155 654C1143.5 646.5 1132 625 1123.5 611C1115 597 1112 605 1096 596.5C1083.2 589.7 1071.33 571.667 1067 563.5C1063.67 556.833 1055.4 541.6 1049 534C1041 524.5 1037.5 520.5 1029 504C1020.59 487.675 1009.24 435.128 972.197 402.054C971.718 401.659 971.319 401.305 971 401Z" fill="url(#paint4_linear_59_2)"/>
<path d="M685 336C686.676 337.489 688.276 338.986 689.804 340.489C694.459 344.201 693.525 340.072 704.502 343.675C721.65 349.304 712.503 347.769 730.505 374.376C748.506 400.984 750.507 402.519 768.509 424.521C786.51 446.524 778.51 471.596 797.512 485.412C816.513 499.227 813.013 502.297 839.016 510.996C865.018 519.694 872.519 522.253 882.52 551.419C892.521 580.585 939.026 606.169 960.528 628.171C982.03 650.174 979.059 655.739 994.032 665.012C1013.03 676.781 1008.03 657.849 1015.53 669.618C1023.03 681.386 1032.54 690.085 1032.54 697.76C1032.54 705.435 1029.54 714.134 1032.54 727.438C1035.54 740.741 1038.54 769.907 1032.54 756.604C1026.53 743.3 1025.53 733.066 1015.53 711.064C1005.53 689.061 1004.03 691.62 986.531 679.851C969.029 668.082 969.529 668.082 947.527 657.849C925.525 647.615 930.525 647.615 913.023 639.94C895.522 632.265 891.521 621.008 882.52 606.169C873.519 591.33 868.019 585.701 856.518 578.026C845.016 570.351 833.515 548.349 825.014 534.021C816.513 519.694 813.513 527.881 797.512 519.183C784.71 512.224 772.842 493.769 768.509 485.412C765.175 478.589 756.907 463 750.507 455.222C742.506 445.5 739.006 441.407 730.505 424.521C722.379 408.38 722.934 373.07 689.804 340.489C688.642 339.563 687.131 338.147 685 336Z" fill="url(#paint5_linear_59_2)"/>
<path d="M-43.9998 302.254C-45.9998 330.754 -50.9999 329.253 -81.4999 366.253C-81.4999 368.92 -83.8999 376.253 -93.4999 384.253C-105.5 394.253 -122.5 404.753 -128.5 409.753C-134.5 414.753 -145.5 421.753 -155.5 459.753C-163.5 490.153 -171.833 509.42 -175 515.253C-171.5 512.587 -162.7 504.553 -155.5 493.753C-146.5 480.253 -141.5 478.753 -128.5 469.753C-115.5 460.753 -111.5 452.753 -102.5 434.753C-93.4999 416.753 -89.4998 412.753 -73.4998 395.753C-57.4998 378.753 -43.9998 377.253 -30.9999 361.253C-17.9999 345.253 -21.9998 326.254 -11.9998 302.254C-1.99979 278.254 4.00024 277.755 13.0003 257.755C22.0003 237.755 23.0003 222.755 35.0003 209.755C47.0003 196.755 73.5002 175.755 63.5002 180.755C53.5002 185.755 13.0003 201.755 13.0003 215.755C13.0003 229.755 -6.99976 246.755 -21.9998 257.755C-36.9998 268.755 -41.9998 273.754 -43.9998 302.254Z" fill="url(#paint6_linear_59_2)"/>
<path d="M65.5002 360.753C50.0002 385.753 49.5002 372.253 32.5002 385.753C21.3336 391.419 1.80025 401.353 13.0002 395.753C27.0002 388.753 65.5002 395.753 83.5002 385.753C101.5 375.753 106 360.753 111.5 354.253C117 347.753 158.5 321.753 165.5 321.753C172.5 321.753 192 276.753 203 276.753C214 276.753 211 259.753 223.5 241.753C236 223.753 250 172.753 239 183.753C232 214.253 225 193.253 211 214.253C197 235.253 203 228.254 190.5 241.754C178 255.254 156 262.753 146 276.753C136 290.753 120 292.253 106 310.253C92.0002 328.253 81.0002 335.753 65.5002 360.753Z" fill="url(#paint7_linear_59_2)"/>
<path fill-rule="evenodd" clip-rule="evenodd" d="M494 15.4871C494 220.491 121.676 717.487 -81 717.487H494H1069C866.324 717.487 494 220.491 494 15.4871Z" fill="#A118D7"/>
<path fill-rule="evenodd" clip-rule="evenodd" d="M494 15.4871C494 220.491 248.59 717.487 115 717.487H494H873C739.41 717.487 494 220.491 494 15.4871Z" fill="#C178DE"/>
<path fill-rule="evenodd" clip-rule="evenodd" d="M494 15.4871C494 222.827 426.658 725.487 390 725.487H494H598C561.342 725.487 494 222.827 494 15.4871Z" fill="#D395EB"/>
<path fill-rule="evenodd" clip-rule="evenodd" d="M502.999 11.053C499.355 3.53509 488.645 3.53508 485.001 11.053L442.071 99.6255C438.852 106.267 443.69 113.987 451.07 113.987H484.342L492.096 89.901C492.692 88.0514 495.308 88.0514 495.904 89.901L503.658 113.987H536.93C544.31 113.987 549.148 106.267 545.929 99.6255L502.999 11.053Z" fill="url(#paint8_linear_59_2)"/>
<path d="M485.001 11.053L480.952 9.09027V9.09027L485.001 11.053ZM502.999 11.053L498.949 13.0157L502.999 11.053ZM442.071 99.6255L446.121 101.588H446.121L442.071 99.6255ZM484.342 113.987V118.487H487.621L488.626 115.366L484.342 113.987ZM492.096 89.901L487.813 88.522V88.522L492.096 89.901ZM495.904 89.901L491.62 91.2799L491.62 91.2799L495.904 89.901ZM503.658 113.987L499.374 115.366L500.379 118.487H503.658V113.987ZM545.929 99.6255L549.978 97.6628L545.929 99.6255ZM489.051 13.0157C491.055 8.88085 496.945 8.88084 498.949 13.0157L507.048 9.09028C501.765 -1.81067 486.235 -1.81069 480.952 9.09027L489.051 13.0157ZM446.121 101.588L489.051 13.0157L480.952 9.09027L438.022 97.6628L446.121 101.588ZM451.07 109.487C447.011 109.487 444.35 105.241 446.121 101.588L438.022 97.6628C433.354 107.292 440.369 118.487 451.07 118.487V109.487ZM484.342 109.487H451.07V118.487H484.342V109.487ZM487.813 88.522L480.059 112.608L488.626 115.366L496.38 91.2799L487.813 88.522ZM500.187 88.522C498.252 82.5111 489.748 82.5111 487.813 88.522L496.38 91.2799C495.635 93.5918 492.365 93.5918 491.62 91.2799L500.187 88.522ZM507.941 112.608L500.187 88.522L491.62 91.2799L499.374 115.366L507.941 112.608ZM536.93 109.487H503.658V118.487H536.93V109.487ZM541.879 101.588C543.65 105.241 540.989 109.487 536.93 109.487V118.487C547.631 118.487 554.646 107.292 549.978 97.6628L541.879 101.588ZM498.949 13.0157L541.879 101.588L549.978 97.6628L507.048 9.09028L498.949 13.0157Z" fill="#CF85EC"/>
<path fill-rule="evenodd" clip-rule="evenodd" d="M217.847 221.682L201.5 207.539L219.169 198.465C220.871 197.348 222.974 196.791 225.214 197.072L312.822 208.072C319.769 208.945 325.342 214.232 326.578 221.123L338.533 287.781C339.488 293.105 336.087 297.925 331.281 299.213L316.5 307.039L303.543 295.828L240.747 286.253C234.013 285.227 228.668 280.05 227.426 273.353L217.847 221.682Z" fill="url(#paint9_linear_59_2)"/>
<path d="M199.244 215.643C198.134 209.653 203.17 204.313 209.214 205.072L296.822 216.072C303.769 216.945 309.342 222.232 310.578 229.123L322.533 295.781C323.743 302.528 317.959 308.465 311.182 307.432L224.747 294.253C218.013 293.227 212.668 288.05 211.426 281.353L199.244 215.643Z" fill="url(#paint10_linear_59_2)"/>
<path fill-rule="evenodd" clip-rule="evenodd" d="M291.312 246.257C291.922 245.899 292.477 245.447 292.953 244.896C295.966 241.416 295.679 235.074 291.652 231.588C288.617 228.962 283.322 228.756 280.101 231.29L280.067 231.249L276.341 234.23L277.505 235.612C276.812 238.943 277.98 242.878 280.423 244.992C282.241 246.566 284.87 247.427 287.379 247.338L288.265 248.39L291.312 246.257Z" fill="url(#paint11_linear_59_2)"/>
<path d="M289.972 247.132C286.96 250.613 280.809 250.142 277.442 247.228C274.074 244.314 273.13 237.937 276.142 234.456C279.155 230.975 285.304 230.91 288.671 233.824C292.698 237.31 292.985 243.651 289.972 247.132Z" fill="#E2C31F"/>
<path fill-rule="evenodd" clip-rule="evenodd" d="M242.512 227.563L242.5 227.539L235.5 231.039L236.871 238.809L227 263.039L228.81 272.389C229.525 276.085 232.465 278.946 236.18 279.559L282.644 287.232L301.5 294.539L307.503 291.337L307.64 291.359C309.296 291.633 310.532 289.868 309.709 288.406L293.329 259.29C292.44 257.709 290.381 257.291 288.951 258.334L283 261.539L282.706 263.89L279.4 266.842C278.433 267.705 276.912 267.434 276.303 266.29L263.299 241.859C262.382 240.135 260.161 239.786 258.755 240.94L253 244.039L252.71 244.426C252.668 244.353 252.63 244.277 252.596 244.196L246.308 229.225C245.633 227.617 243.909 227.065 242.512 227.563Z" fill="url(#paint12_linear_59_2)"/>
<path d="M233.764 232.754L220 266.539L221.81 275.89C222.525 279.585 225.465 282.446 229.18 283.059L300.64 294.859C302.296 295.133 303.532 293.368 302.709 291.906L286.329 262.791C285.39 261.12 283.146 260.747 281.717 262.024L272.4 270.342C271.433 271.205 269.912 270.934 269.303 269.79L256.299 245.359C255.247 243.382 252.478 243.213 251.193 245.048L249.079 248.069C248.176 249.359 246.206 249.148 245.596 247.697L239.308 232.725C238.273 230.259 234.773 230.278 233.764 232.754Z" fill="#2CCA32"/>
<path d="M936.45 420.643C937.56 414.653 932.524 409.313 926.479 410.072L838.871 421.072C831.925 421.945 826.352 427.232 825.116 434.123L813.161 500.781C811.951 507.528 817.735 513.465 824.511 512.432L910.947 499.253C917.681 498.227 923.026 493.05 924.268 486.353L936.45 420.643Z" fill="#D9D9D9"/>
<path fill-rule="evenodd" clip-rule="evenodd" d="M917.847 426.682L934.194 412.539L916.524 403.465C914.823 402.348 912.72 401.791 910.479 402.072L822.871 413.072C815.925 413.945 810.352 419.232 809.116 426.123L797.161 492.781C796.206 498.105 799.606 502.925 804.413 504.213L819.194 512.039L832.151 500.828L894.947 491.253C901.681 490.227 907.026 485.05 908.268 478.353L917.847 426.682Z" fill="url(#paint13_linear_59_2)"/>
<path d="M936.45 420.643C937.56 414.653 932.524 409.313 926.479 410.072L838.871 421.072C831.925 421.945 826.352 427.232 825.116 434.123L813.161 500.781C811.951 507.528 817.735 513.465 824.511 512.432L910.947 499.253C917.681 498.227 923.026 493.05 924.268 486.353L936.45 420.643Z" fill="url(#paint14_linear_59_2)"/>
<path d="M936.45 420.643C937.56 414.653 932.524 409.313 926.479 410.072L838.871 421.072C831.925 421.945 826.352 427.232 825.116 434.123L813.161 500.781C811.951 507.528 817.735 513.465 824.511 512.432L910.947 499.253C917.681 498.227 923.026 493.05 924.268 486.353L936.45 420.643Z" fill="url(#paint15_linear_59_2)"/>
<path d="M936.45 420.643C937.56 414.653 932.524 409.313 926.479 410.072L838.871 421.072C831.925 421.945 826.352 427.232 825.116 434.123L813.161 500.781C811.951 507.528 817.735 513.465 824.511 512.432L910.947 499.253C917.681 498.227 923.026 493.05 924.268 486.353L936.45 420.643Z" fill="url(#paint16_linear_59_2)"/>
<path d="M833.5 433L912.5 423" stroke="#313131" stroke-width="14" stroke-linecap="round" stroke-dasharray="21 21"/>
<path d="M824 492L903 482" stroke="#313131" stroke-width="14" stroke-linecap="round" stroke-dasharray="21 21"/>
<path fill-rule="evenodd" clip-rule="evenodd" d="M889.912 441.721L856.756 445.821L853.513 476.628L886.105 473.027L889.912 441.721ZM893.87 441.231L890.575 472.533L913.5 470L920 438L893.87 441.231ZM827 449.5L852.78 446.312L849.032 477.124L823 480L827 449.5Z" fill="#313131"/>
<path fill-rule="evenodd" clip-rule="evenodd" d="M936.45 420.643C937.56 414.653 932.524 409.313 926.479 410.072L838.871 421.072C831.925 421.945 826.352 427.232 825.116 434.123L813.161 500.781C811.951 507.528 817.735 513.465 824.511 512.432L910.947 499.253C917.681 498.227 923.026 493.05 924.268 486.353L936.45 420.643ZM925.445 426.121C925.93 429.956 923.214 433.459 919.379 433.945L909.504 435.195C905.669 435.68 902.166 432.964 901.68 429.129C901.195 425.294 903.911 421.791 907.746 421.305L917.621 420.055C921.456 419.57 924.959 422.286 925.445 426.121ZM895.82 429.871C896.305 433.706 893.589 437.209 889.754 437.695L870.004 440.195C866.169 440.68 862.666 437.964 862.18 434.129C861.695 430.294 864.411 426.791 868.246 426.305L887.996 423.805C891.831 423.32 895.334 426.036 895.82 429.871ZM856.32 434.871C856.805 438.706 854.089 442.209 850.254 442.695L840.379 443.945C836.544 444.43 833.041 441.714 832.555 437.879C832.07 434.044 834.786 430.541 838.621 430.055L848.496 428.805C852.331 428.32 855.834 431.036 856.32 434.871ZM909.879 492.945C913.714 492.459 916.43 488.956 915.945 485.121C915.459 481.286 911.956 478.57 908.121 479.055L898.246 480.305C894.411 480.791 891.695 484.294 892.18 488.129C892.666 491.965 896.169 494.68 900.004 494.195L909.879 492.945ZM880.254 496.695C884.089 496.209 886.805 492.706 886.32 488.871C885.834 485.036 882.331 482.32 878.496 482.805L858.746 485.305C854.911 485.791 852.195 489.294 852.68 493.129C853.166 496.965 856.669 499.68 860.504 499.195L880.254 496.695ZM840.754 501.695C844.589 501.209 847.305 497.706 846.82 493.871C846.334 490.036 842.831 487.32 838.996 487.805L829.121 489.055C825.286 489.541 822.57 493.044 823.055 496.879C823.541 500.715 827.044 503.43 830.879 502.945L840.754 501.695ZM860.256 447.821L893.412 443.721L889.605 475.027L857.013 478.628L860.256 447.821ZM894.075 474.533L897.37 443.231L923.5 440L917 472L894.075 474.533ZM856.28 448.312L830.5 451.5L826.5 482L852.532 479.124L856.28 448.312Z" fill="#4B218E"/>
<path fill-rule="evenodd" clip-rule="evenodd" d="M877.226 458.726C877.16 458.468 876.99 458.233 876.717 458.092L868.235 453.708C867.598 453.379 866.831 453.808 866.778 454.523L866.128 463.29C866.091 463.781 866.404 464.18 866.816 464.316L869 466.5L879.5 461.5V461L877.226 458.726Z" fill="url(#paint17_linear_59_2)"/>
<path d="M879.327 460.579C880.06 460.958 880.045 462.011 879.301 462.369L870.168 466.752C869.475 467.085 868.681 466.544 868.738 465.777L869.388 457.009C869.441 456.294 870.207 455.866 870.844 456.195L879.327 460.579Z" fill="url(#paint18_linear_59_2)"/>
<defs>
<linearGradient id="paint0_linear_59_2" x1="413.978" y1="51.5014" x2="243.623" y2="589.256" gradientUnits="userSpaceOnUse">
<stop stop-color="#D9D9D9"/>
<stop offset="1" stop-color="#D9D9D9" stop-opacity="0"/>
</linearGradient>
<linearGradient id="paint1_linear_59_2" x1="413.978" y1="51.5014" x2="243.623" y2="589.256" gradientUnits="userSpaceOnUse">
<stop stop-color="#D9D9D9"/>
<stop offset="1" stop-color="#D9D9D9" stop-opacity="0"/>
</linearGradient>
<linearGradient id="paint2_linear_59_2" x1="292.71" y1="198.501" x2="122.355" y2="736.256" gradientUnits="userSpaceOnUse">
<stop stop-color="#D9D9D9"/>
<stop offset="1" stop-color="#D9D9D9" stop-opacity="0"/>
</linearGradient>
<linearGradient id="paint3_linear_59_2" x1="645" y1="-19.4986" x2="815.355" y2="518.256" gradientUnits="userSpaceOnUse">
<stop stop-color="#D9D9D9"/>
<stop offset="1" stop-color="#D9D9D9" stop-opacity="0"/>
</linearGradient>
<linearGradient id="paint4_linear_59_2" x1="1122" y1="-20" x2="1216" y2="832.5" gradientUnits="userSpaceOnUse">
<stop stop-color="#D9D9D9"/>
<stop offset="1" stop-color="#D9D9D9" stop-opacity="0"/>
</linearGradient>
<linearGradient id="paint5_linear_59_2" x1="823.514" y1="-111.723" x2="921.893" y2="760.204" gradientUnits="userSpaceOnUse">
<stop stop-color="#D9D9D9"/>
<stop offset="1" stop-color="#D9D9D9" stop-opacity="0"/>
</linearGradient>
<linearGradient id="paint6_linear_59_2" x1="-62" y1="372" x2="262" y2="-210" gradientUnits="userSpaceOnUse">
<stop stop-color="#D9D9D9" stop-opacity="0"/>
<stop offset="1" stop-color="#D9D9D9"/>
</linearGradient>
<linearGradient id="paint7_linear_59_2" x1="-62" y1="372" x2="262" y2="-210" gradientUnits="userSpaceOnUse">
<stop stop-color="#D9D9D9" stop-opacity="0"/>
<stop offset="1" stop-color="#D9D9D9"/>
</linearGradient>
<linearGradient id="paint8_linear_59_2" x1="466.393" y1="41.3764" x2="546.16" y2="140.376" gradientUnits="userSpaceOnUse">
<stop stop-color="#A118D7"/>
<stop offset="1" stop-color="#CF85EC"/>
</linearGradient>
<linearGradient id="paint9_linear_59_2" x1="282.5" y1="206.539" x2="330" y2="296.039" gradientUnits="userSpaceOnUse">
<stop stop-color="#6E81E7"/>
<stop offset="1" stop-color="#742EE8" stop-opacity="0.37"/>
</linearGradient>
<linearGradient id="paint10_linear_59_2" x1="212" y1="216.039" x2="306" y2="293.539" gradientUnits="userSpaceOnUse">
<stop stop-color="#6E7BEF"/>
<stop offset="1" stop-color="#A118D7" stop-opacity="0.64"/>
</linearGradient>
<linearGradient id="paint11_linear_59_2" x1="285.659" y1="229.499" x2="285.659" y2="248.39" gradientUnits="userSpaceOnUse">
<stop stop-color="#EBD979"/>
<stop offset="1" stop-color="#EBD979" stop-opacity="0"/>
</linearGradient>
<linearGradient id="paint12_linear_59_2" x1="261" y1="238.039" x2="276" y2="301.039" gradientUnits="userSpaceOnUse">
<stop stop-color="#15AF1B"/>
<stop offset="1" stop-color="#2CCA32" stop-opacity="0"/>
</linearGradient>
<linearGradient id="paint13_linear_59_2" x1="853.194" y1="411.539" x2="805.694" y2="501.039" gradientUnits="userSpaceOnUse">
<stop stop-color="#6E81E7"/>
<stop offset="1" stop-color="#742EE8" stop-opacity="0.37"/>
</linearGradient>
<linearGradient id="paint14_linear_59_2" x1="923.694" y1="421.039" x2="829.694" y2="498.539" gradientUnits="userSpaceOnUse">
<stop stop-color="#6173CF"/>
<stop offset="1" stop-color="#572B9F"/>
</linearGradient>
<linearGradient id="paint15_linear_59_2" x1="923.694" y1="421.039" x2="829.694" y2="498.539" gradientUnits="userSpaceOnUse">
<stop stop-color="#6173CF"/>
<stop offset="1" stop-color="#572B9F"/>
</linearGradient>
<linearGradient id="paint16_linear_59_2" x1="923.694" y1="421.039" x2="829.694" y2="498.539" gradientUnits="userSpaceOnUse">
<stop stop-color="#6173CF"/>
<stop offset="1" stop-color="#572B9F"/>
</linearGradient>
<linearGradient id="paint17_linear_59_2" x1="878.466" y1="459.649" x2="866.318" y2="459.007" gradientUnits="userSpaceOnUse">
<stop stop-color="#5B48B2"/>
<stop offset="1" stop-color="#7947C8"/>
</linearGradient>
<linearGradient id="paint18_linear_59_2" x1="881.076" y1="462.136" x2="868.927" y2="461.493" gradientUnits="userSpaceOnUse">
<stop stop-color="#4B218E"/>
<stop offset="1" stop-color="#4B218E"/>
</linearGradient>
</defs>
</svg>
