<svg width="56" height="56" viewBox="0 0 56 56" fill="none" xmlns="http://www.w3.org/2000/svg">
<path d="M56.25 30.5833V45.0833C56.25 54.75 53.875 57.1667 44.375 57.1667H20.625C11.125 57.1667 8.75 54.75 8.75 45.0833V20.9167C8.75 11.25 11.125 8.83334 20.625 8.83334H24.1875C27.75 8.83334 28.5337 9.89667 29.8875 11.7333L33.45 16.5667C34.3525 17.775 34.875 18.5 37.25 18.5H44.375C53.875 18.5 56.25 20.9167 56.25 30.5833Z" fill="#F9E684"/>
<path d="M51.1667 24.5833V39.0833C51.1667 48.75 48.75 51.1667 39.0833 51.1667H14.9167C5.24999 51.1667 2.83333 48.75 2.83333 39.0833V14.9167C2.83333 5.25 5.24999 2.83334 14.9167 2.83334H18.5417C22.1667 2.83334 22.9642 3.89667 24.3417 5.73334L27.9667 10.5667C28.885 11.775 29.4167 12.5 31.8333 12.5H39.0833C48.75 12.5 51.1667 14.9167 51.1667 24.5833Z" stroke="black" stroke-width="4" stroke-miterlimit="10"/>
</svg>
