<svg width="66" height="77" viewBox="0 0 66 77" fill="none" xmlns="http://www.w3.org/2000/svg">
<path d="M17.4987 33.0963C3.72875 34.075 3.7625 54.0213 17.4987 55H50.1013C54.05 55.0338 57.8638 53.5488 60.8 50.8825C70.4525 42.445 65.2888 25.57 52.565 23.95C48.0088 -3.5225 8.2175 6.90625 17.6337 33.0963M36.5 55V65.125V55ZM36.5 78.625C38.2902 78.625 40.0071 77.9138 41.273 76.648C42.5388 75.3821 43.25 73.6652 43.25 71.875C43.25 70.0848 42.5388 68.3679 41.273 67.102C40.0071 65.8362 38.2902 65.125 36.5 65.125C34.7098 65.125 32.9929 65.8362 31.727 67.102C30.4612 68.3679 29.75 70.0848 29.75 71.875C29.75 73.6652 30.4612 75.3821 31.727 76.648C32.9929 77.9138 34.7098 78.625 36.5 78.625ZM56.75 71.875H43.25H56.75ZM29.75 71.875H16.25H29.75Z" fill="#AFD0EF"/>
<path d="M12.2333 28.0963C-1.36667 29.075 -1.33333 49.0213 12.2333 50H44.4333C48.3333 50.0338 52.1 48.5488 55 45.8825C64.5333 37.445 59.4333 20.57 46.8667 18.95C42.3667 -8.5225 3.06667 1.90625 12.3667 28.0963M31 50V60.125M51 66.875H37.6667M24.3333 66.875H11M31 73.625C32.7681 73.625 34.4638 72.9138 35.714 71.648C36.9643 70.3821 37.6667 68.6652 37.6667 66.875C37.6667 65.0848 36.9643 63.3679 35.714 62.102C34.4638 60.8362 32.7681 60.125 31 60.125C29.2319 60.125 27.5362 60.8362 26.286 62.102C25.0357 63.3679 24.3333 65.0848 24.3333 66.875C24.3333 68.6652 25.0357 70.3821 26.286 71.648C27.5362 72.9138 29.2319 73.625 31 73.625Z" stroke="black" stroke-width="4" stroke-miterlimit="10" stroke-linecap="round" stroke-linejoin="round"/>
</svg>
