<svg width="82" height="82" viewBox="0 0 82 82" fill="none" xmlns="http://www.w3.org/2000/svg">
<path d="M47.2633 38.3333L40.8729 23.1042C38.7088 17.9375 34.7275 17.7292 32.0529 22.6458L28.1942 29.75C26.2342 33.3542 22.5796 33.6667 20.0479 30.4375L19.5988 29.8542C16.965 26.4792 13.2492 26.8958 11.3504 30.75L7.83876 37.9375C5.36834 42.9375 8.94126 48.8333 14.4129 48.8333H40.4646C45.7729 48.8333 49.3458 43.3125 47.2633 38.3333ZM17.2304 19.6667C18.8549 19.6667 20.4128 19.0082 21.5615 17.8361C22.7101 16.664 23.3554 15.0743 23.3554 13.4167C23.3554 11.7591 22.7101 10.1693 21.5615 8.99725C20.4128 7.82514 18.8549 7.16666 17.2304 7.16666C15.606 7.16666 14.0481 7.82514 12.8994 8.99725C11.7507 10.1693 11.1054 11.7591 11.1054 13.4167C11.1054 15.0743 11.7507 16.664 12.8994 17.8361C14.0481 19.0082 15.606 19.6667 17.2304 19.6667Z" fill="#B3F296"/>
<path d="M44.2633 35.3333L37.8729 20.1042C35.7088 14.9375 31.7275 14.7292 29.0529 19.6458L25.1942 26.75C23.2342 30.3542 19.5796 30.6667 17.0479 27.4375L16.5988 26.8542C13.965 23.4792 10.2492 23.8958 8.35043 27.75L4.83876 34.9375C2.36834 39.9375 5.94126 45.8333 11.4129 45.8333H37.4646C42.7729 45.8333 46.3458 40.3125 44.2633 35.3333ZM14.2304 16.6667C15.8549 16.6667 17.4128 16.0082 18.5615 14.8361C19.7101 13.664 20.3554 12.0743 20.3554 10.4167C20.3554 8.75906 19.7101 7.16935 18.5615 5.99725C17.4128 4.82514 15.8549 4.16666 14.2304 4.16666C12.606 4.16666 11.0481 4.82514 9.8994 5.99725C8.75074 7.16935 8.10543 8.75906 8.10543 10.4167C8.10543 12.0743 8.75074 13.664 9.8994 14.8361C11.0481 16.0082 12.606 16.6667 14.2304 16.6667V16.6667Z" stroke="black" stroke-width="3" stroke-linecap="round" stroke-linejoin="round"/>
<path d="M44.8827 71.4244H57.1327C67.341 71.4244 71.4243 67.341 71.4243 57.1327V44.8827C71.4243 34.6744 67.341 30.591 57.1327 30.591H44.8827C34.6743 30.591 30.591 34.6744 30.591 44.8827V57.1327C30.591 67.341 34.6743 71.4244 44.8827 71.4244ZM40.5748 31.6527V70.3627V31.6527ZM60.9914 31.6527V70.3627V31.6527ZM40.5748 40.7381H31.6935H40.5748ZM40.5748 51.0077H30.6523H40.5748ZM40.5748 61.1548H31.571H40.5748ZM71.1998 40.7381H62.3185H71.1998ZM71.1998 51.0077H61.2773H71.1998ZM61.1548 51.0077H38.6964H61.1548ZM71.1998 61.1548H62.196H71.1998Z" fill="white"/>
<path d="M40.5748 31.6527V70.3627M60.9914 31.6527V70.3627M40.5748 40.7381H31.6935M40.5748 51.0077H30.6523M40.5748 61.1548H31.571M71.1998 40.7381H62.3185M71.1998 51.0077H61.2773M61.1548 51.0077H38.6964M71.1998 61.1548H62.196M44.8827 71.4244H57.1327C67.341 71.4244 71.4243 67.341 71.4243 57.1327V44.8827C71.4243 34.6744 67.341 30.591 57.1327 30.591H44.8827C34.6743 30.591 30.591 34.6744 30.591 44.8827V57.1327C30.591 67.341 34.6743 71.4244 44.8827 71.4244Z" stroke="white" stroke-width="3" stroke-linecap="round" stroke-linejoin="round"/>
<path d="M51.375 77.9167H63.625C73.8333 77.9167 77.9167 73.8333 77.9167 63.625V51.375C77.9167 41.1667 73.8333 37.0833 63.625 37.0833H51.375C41.1667 37.0833 37.0833 41.1667 37.0833 51.375V63.625C37.0833 73.8333 41.1667 77.9167 51.375 77.9167ZM47.0671 38.145V76.855V38.145ZM67.4838 38.145V76.855V38.145ZM47.0671 47.2304H38.1858H47.0671ZM47.0671 57.5H37.1446H47.0671ZM47.0671 67.6471H38.0633H47.0671ZM77.6921 47.2304H68.8108H77.6921ZM77.6921 57.5H67.7696H77.6921ZM67.6471 57.5H45.1888H67.6471ZM77.6921 67.6471H68.6883H77.6921Z" fill="#F0C693"/>
<path d="M43.0671 34.145V72.855M63.4838 34.145V72.855M43.0671 43.2304H34.1858M43.0671 53.5H33.1446M43.0671 63.6471H34.0633M73.6921 43.2304H64.8108M73.6921 53.5H63.7696M63.6471 53.5H41.1888M73.6921 63.6471H64.6883M47.375 73.9167H59.625C69.8333 73.9167 73.9167 69.8333 73.9167 59.625V47.375C73.9167 37.1667 69.8333 33.0833 59.625 33.0833H47.375C37.1667 33.0833 33.0833 37.1667 33.0833 47.375V59.625C33.0833 69.8333 37.1667 73.9167 47.375 73.9167Z" stroke="black" stroke-width="3" stroke-linecap="round" stroke-linejoin="round"/>
</svg>
