<svg width="64" height="61" viewBox="0 0 64 61" fill="none" xmlns="http://www.w3.org/2000/svg">
<path d="M35.6719 23.071C37.7837 23.071 39.8091 22.2244 41.3024 20.7175C42.7957 19.2105 43.6347 17.1666 43.6347 15.0355C43.6347 12.9043 42.7957 10.8605 41.3024 9.35354C39.8091 7.84659 37.7837 7 35.6719 7C33.56 7 31.5346 7.84659 30.0413 9.35354C28.548 10.8605 27.709 12.9043 27.709 15.0355C27.709 17.1666 28.548 19.2105 30.0413 20.7175C31.5346 22.2244 33.56 23.071 35.6719 23.071ZM14.9628 58.3925C17.0747 58.3925 19.1001 57.5459 20.5934 56.0389C22.0867 54.532 22.9256 52.4881 22.9256 50.357C22.9256 48.2258 22.0867 46.182 20.5934 44.675C19.1001 43.1681 17.0747 42.3215 14.9628 42.3215C12.8509 42.3215 10.8256 43.1681 9.33225 44.675C7.83894 46.182 7 48.2258 7 50.357C7 52.4881 7.83894 54.532 9.33225 56.0389C10.8256 57.5459 12.8509 58.3925 14.9628 58.3925ZM56.0372 58.3925C58.1491 58.3925 60.1744 57.5459 61.6677 56.0389C63.1611 54.532 64 52.4881 64 50.357C64 48.2258 63.1611 46.182 61.6677 44.675C60.1744 43.1681 58.1491 42.3215 56.0372 42.3215C53.9253 42.3215 51.8999 43.1681 50.4066 44.675C48.9133 46.182 48.0744 48.2258 48.0744 50.357C48.0744 52.4881 48.9133 54.532 50.4066 56.0389C51.8999 57.5459 53.9253 58.3925 56.0372 58.3925Z" fill="#6E7BEF"/>
<path d="M44.707 13.6486C50.4357 17.6663 54.3884 24.0543 55.1905 31.4249M6.12462 31.5695C6.48474 28.0349 7.59146 24.6194 9.37021 21.5529C11.149 18.4865 13.5584 15.8404 16.4362 13.7931M19.5869 56.3408C22.9095 58.0461 26.6905 59 30.6719 59C34.51 59 38.1191 58.1329 41.3558 56.5431M30.6719 18.071C32.7837 18.071 34.8091 17.2244 36.3024 15.7175C37.7957 14.2105 38.6347 12.1666 38.6347 10.0355C38.6347 7.90435 37.7957 5.86049 36.3024 4.35354C34.8091 2.84659 32.7837 2 30.6719 2C28.56 2 26.5346 2.84659 25.0413 4.35354C23.548 5.86049 22.709 7.90435 22.709 10.0355C22.709 12.1666 23.548 14.2105 25.0413 15.7175C26.5346 17.2244 28.56 18.071 30.6719 18.071V18.071ZM9.96281 53.3925C12.0747 53.3925 14.1001 52.5459 15.5934 51.039C17.0867 49.532 17.9256 47.4881 17.9256 45.357C17.9256 43.2258 17.0867 41.182 15.5934 39.675C14.1001 38.1681 12.0747 37.3215 9.96281 37.3215C7.85094 37.3215 5.82557 38.1681 4.33225 39.675C2.83894 41.182 2 43.2258 2 45.357C2 47.4881 2.83894 49.532 4.33225 51.039C5.82557 52.5459 7.85094 53.3925 9.96281 53.3925V53.3925ZM51.0372 53.3925C53.1491 53.3925 55.1744 52.5459 56.6677 51.039C58.1611 49.532 59 47.4881 59 45.357C59 43.2258 58.1611 41.182 56.6677 39.675C55.1744 38.1681 53.1491 37.3215 51.0372 37.3215C48.9253 37.3215 46.8999 38.1681 45.4066 39.675C43.9133 41.182 43.0744 43.2258 43.0744 45.357C43.0744 47.4881 43.9133 49.532 45.4066 51.039C46.8999 52.5459 48.9253 53.3925 51.0372 53.3925V53.3925Z" stroke="black" stroke-width="4" stroke-linecap="round" stroke-linejoin="round"/>
</svg>
